# xmcd
#
# Track frame offsets:
#	150
#	14101
#	30901
#	57712
#	82033
#	95442
#	109049
#	123902
#	137215
#	149475
#	164550
#	176810
#	189148
#	203304
#	217273
#	227768
#	240787
#	255449
#	269661
#	279751
#	294522
#
# Disc length: 4088 seconds
#
# Revision: 0
# Processed by: cddbd v1.5.2PL0 Copyright (c) Steve Scherf et al.
# Submitted via: dBpowerAMP V4.0
#
DISCID=320ff615
DTITLE=Mahalia Jackson - Mahalia Jackson - The best of
DYEAR=1900
DGENRE=Soul
TTITLE0=Go tell it on the mountain
TTITLE1=His eye is on the sparrow
TTITLE2=In the upper room Part 1 and 2
TTITLE3=I will move on up a little higher
TTITLE4=What could I do
TTITLE5=Even me
TTITLE6=I'm going to tell god
TTITLE7=Dig a little deeper
TTITLE8=Walk with me
TTITLE9=In my home over there
TTITLE10=Just over the hill Part 1
TTITLE11=Just over the hill Part
TTITLE12=Walking to Jerusalem  Up in Jerusalem
TTITLE13=I have a friend  Above all others
TTITLE14=Amazing Grace
TTITLE15=These are they
TTITLE16=Child of the King
TTITLE17=Prayer changes things
TTITLE18=Do you know him
TTITLE19=Bless this house
TTITLE20=He's the one
EXTD=
EXTT0=
EXTT1=
EXTT2=
EXTT3=
EXTT4=
EXTT5=
EXTT6=
EXTT7=
EXTT8=
EXTT9=
EXTT10=
EXTT11=
EXTT12=
EXTT13=
EXTT14=
EXTT15=
EXTT16=
EXTT17=
EXTT18=
EXTT19=
EXTT20=
PLAYORDER=
